<?xml version="1.0" encoding="UTF-8"?>
<svg xmlns="http://www.w3.org/2000/svg" xmlns:xlink="http://www.w3.org/1999/xlink" width="400px" height="400px" viewBox="0 0 400 400" version="1.1">
<g id="surface1">
<path style=" stroke:none;fill-rule:nonzero;fill:rgb(85.882353%,91.764706%,99.607843%);fill-opacity:1;" d="M 329.4375 119.5625 L 327.40625 73.300781 C 327.359375 72.210938 326.753906 71.226562 325.804688 70.691406 C 324.855469 70.15625 323.699219 70.152344 322.746094 70.679688 L 257.558594 106.527344 C 254.582031 103.171875 249.898438 101.914062 245.644531 103.324219 C 241.386719 104.730469 238.378906 108.539062 237.992188 113.003906 L 217.390625 116.042969 L 190.351562 116.042969 L 159.097656 111.433594 L 94.074219 75.679688 C 94.28125 74.824219 94.386719 73.945312 94.386719 73.0625 C 94.382812 67.292969 90.007812 62.46875 84.265625 61.894531 C 78.527344 61.324219 73.285156 65.199219 72.148438 70.851562 C 71.007812 76.507812 74.339844 82.105469 79.851562 83.804688 L 78.742188 109.070312 C 73.328125 110.578125 69.863281 115.855469 70.628906 121.421875 C 71.398438 126.988281 76.164062 131.128906 81.785156 131.109375 C 82.257812 131.113281 82.730469 131.082031 83.195312 131.019531 L 106.714844 181.796875 L 93.464844 241.144531 C 93.175781 242.414062 93.707031 243.730469 94.792969 244.449219 L 150.871094 281.816406 L 178.460938 336.4375 C 178.992188 337.5 180.082031 338.167969 181.269531 338.164062 L 226.457031 338.164062 C 227.644531 338.167969 228.734375 337.496094 229.265625 336.433594 L 256.851562 281.816406 L 312.929688 244.445312 C 314.007812 243.71875 314.535156 242.40625 314.253906 241.136719 L 303.179688 191.507812 C 306.589844 189.792969 308.894531 186.464844 309.300781 182.671875 C 309.707031 178.878906 308.15625 175.140625 305.183594 172.746094 L 329.148438 121.023438 C 329.359375 120.566406 329.460938 120.066406 329.4375 119.5625 Z M 249.175781 108.3125 C 252.308594 108.3125 254.847656 110.851562 254.847656 113.984375 C 254.847656 117.117188 252.308594 119.660156 249.175781 119.660156 C 246.039062 119.660156 243.5 117.117188 243.5 113.984375 C 243.503906 110.851562 246.042969 108.3125 249.175781 108.3125 Z M 81.785156 125.554688 C 78.652344 125.558594 76.109375 123.015625 76.105469 119.882812 C 76.105469 116.75 78.648438 114.207031 81.78125 114.207031 C 84.917969 114.207031 87.457031 116.75 87.457031 119.886719 C 87.453125 123.015625 84.914062 125.550781 81.785156 125.554688 Z M 88.371094 128.96875 C 91.9375 126.390625 93.664062 121.960938 92.785156 117.648438 C 91.90625 113.332031 88.585938 109.929688 84.296875 108.949219 L 85.394531 84.074219 C 86.042969 83.941406 86.679688 83.753906 87.292969 83.507812 L 129.433594 143.589844 L 110.667969 177.089844 Z M 253.246094 277.5625 C 252.792969 277.863281 252.425781 278.277344 252.179688 278.761719 L 224.972656 332.59375 L 182.75 332.59375 L 155.554688 278.75 C 155.308594 278.261719 154.941406 277.847656 154.484375 277.542969 L 108.464844 246.878906 L 147.980469 257.425781 L 184.003906 288.363281 L 183.679688 304.179688 C 183.660156 305.183594 184.121094 306.136719 184.917969 306.75 L 201.957031 319.769531 C 203.085938 320.628906 204.648438 320.628906 205.777344 319.769531 L 222.816406 306.75 C 223.613281 306.140625 224.070312 305.1875 224.050781 304.183594 L 223.730469 288.363281 L 259.753906 257.425781 L 299.257812 246.882812 Z M 175.863281 237.484375 L 152.566406 235.359375 L 144.964844 220.34375 L 164.546875 221.410156 L 176.234375 233.4375 Z M 189.257812 303.078125 L 189.507812 291.085938 L 218.222656 291.085938 L 218.46875 303.078125 L 203.863281 314.238281 Z M 231.480469 233.449219 L 243.167969 221.421875 L 262.75 220.355469 L 255.152344 235.371094 L 231.851562 237.484375 Z M 308.441406 240.59375 L 258.386719 253.960938 L 257.644531 254.328125 L 235.183594 273.648438 L 232.378906 243.019531 L 256.59375 240.796875 C 257.925781 240.679688 259.105469 239.878906 259.707031 238.679688 L 269.75 218.835938 C 270.230469 217.894531 270.167969 216.765625 269.589844 215.878906 C 269.011719 214.996094 268.003906 214.484375 266.949219 214.539062 L 242.222656 215.894531 C 241.242188 215.945312 240.3125 216.363281 239.628906 217.070312 L 226.957031 230.113281 C 226.160156 230.929688 225.765625 232.050781 225.871094 233.179688 L 230 278.089844 L 221.332031 285.53125 L 186.386719 285.53125 L 177.71875 278.089844 L 181.851562 233.183594 C 181.957031 232.054688 181.5625 230.929688 180.769531 230.113281 L 168.097656 217.070312 C 167.410156 216.367188 166.484375 215.945312 165.503906 215.894531 L 140.785156 214.550781 C 139.730469 214.496094 138.722656 215.003906 138.144531 215.890625 C 137.566406 216.777344 137.503906 217.902344 137.980469 218.847656 L 148.027344 238.691406 C 148.628906 239.890625 149.804688 240.6875 151.140625 240.808594 L 175.355469 243.03125 L 172.546875 273.660156 L 150.066406 254.355469 L 149.324219 253.984375 L 99.28125 240.59375 L 112.339844 182.074219 L 112.488281 181.410156 L 133.113281 144.59375 C 133.53125 143.847656 133.488281 142.929688 132.996094 142.230469 L 90.464844 81.574219 C 90.828125 81.269531 91.164062 80.941406 91.480469 80.59375 L 156.847656 116.539062 L 157.285156 116.78125 L 189.9375 121.597656 L 217.777344 121.597656 L 238.890625 118.484375 C 241.023438 123.351562 246.273438 126.054688 251.472656 124.964844 C 256.671875 123.878906 260.394531 119.292969 260.394531 113.980469 C 260.398438 113.132812 260.300781 112.289062 260.105469 111.464844 L 318.890625 79.136719 L 281.179688 133.003906 C 276.960938 131.625 272.332031 132.859375 269.359375 136.152344 C 266.386719 139.441406 265.628906 144.175781 267.429688 148.230469 C 269.230469 152.28125 273.246094 154.898438 277.679688 154.898438 C 278.535156 154.902344 279.386719 154.804688 280.21875 154.605469 L 290.613281 173.167969 C 287.226562 176.230469 286.03125 181.046875 287.601562 185.339844 C 289.171875 189.632812 293.1875 192.542969 297.753906 192.699219 Z M 298.148438 187.15625 C 295.015625 187.15625 292.472656 184.613281 292.472656 181.480469 C 292.472656 178.347656 295.015625 175.808594 298.148438 175.808594 C 301.28125 175.808594 303.820312 178.347656 303.820312 181.480469 C 303.820312 184.613281 301.28125 187.152344 298.148438 187.15625 Z M 300.132812 170.4375 C 299.480469 170.316406 298.8125 170.253906 298.148438 170.253906 C 296.628906 170.253906 295.128906 170.5625 293.734375 171.164062 L 283.652344 153.171875 C 286.769531 151.214844 288.726562 147.851562 288.894531 144.175781 C 289.058594 140.496094 287.40625 136.972656 284.476562 134.746094 L 322.179688 80.894531 L 323.859375 119.21875 Z M 300.132812 170.4375 "/>
</g>
</svg>
